<svg width="29" height="29" viewBox="0 0 29 29" fill="none" xmlns="http://www.w3.org/2000/svg">
<circle cx="14.5" cy="14.5" r="14" stroke="black"/>
<path d="M20.3095 10.2798C19.622 10.1303 18.9995 9.76138 18.5327 9.22694C18.0658 8.69249 17.7791 8.0204 17.7143 7.30866V7H15.3427V16.5691C15.3412 16.9928 15.2093 17.4053 14.9653 17.7487C14.7213 18.0922 14.3777 18.3493 13.9826 18.4839C13.5875 18.6185 13.1609 18.6239 12.7626 18.4993C12.3644 18.3746 12.0146 18.1263 11.7623 17.7891C11.5062 17.4463 11.3641 17.0294 11.3566 16.5989C11.3492 16.1684 11.4768 15.7467 11.721 15.395C11.9652 15.0432 12.3132 14.7797 12.7146 14.6426C13.1161 14.5055 13.55 14.502 13.9535 14.6325V12.1828C13.0537 12.0563 12.1375 12.219 11.333 12.648C10.5286 13.0771 9.87614 13.751 9.46698 14.5756C9.05783 15.4002 8.9124 16.3342 9.05106 17.2469C9.18971 18.1597 9.6055 19.0056 10.2403 19.6662C10.8456 20.296 11.6218 20.728 12.4698 20.9073C13.3177 21.0865 14.199 21.0047 15.001 20.6725C15.8031 20.3402 16.4895 19.7724 16.9728 19.0417C17.4561 18.311 17.7142 17.4504 17.7143 16.5698V11.6803C18.6727 12.3769 19.8218 12.7505 21 12.7483V10.3526C20.768 10.3529 20.5366 10.3285 20.3095 10.2798Z" fill="black"/>
</svg>
