<svg width="41" height="41" viewBox="0 0 41 41" fill="none" xmlns="http://www.w3.org/2000/svg">
<circle cx="20.5" cy="20.5" r="20.5" fill="#E2C799"/>
<path d="M17.329 26.9999C17.6851 26.9999 17.9737 26.7113 17.9737 26.3552C17.9737 25.9991 17.6851 25.7104 17.329 25.7104C16.9729 25.7104 16.6842 25.9991 16.6842 26.3552C16.6842 26.7113 16.9729 26.9999 17.329 26.9999Z" stroke="black" stroke-width="1.5" stroke-linecap="round" stroke-linejoin="round"/>
<path d="M26.3553 26.9999C26.7114 26.9999 27 26.7113 27 26.3552C27 25.9991 26.7114 25.7104 26.3553 25.7104C25.9992 25.7104 25.7106 25.9991 25.7106 26.3552C25.7106 26.7113 25.9992 26.9999 26.3553 26.9999Z" stroke="black" stroke-width="1.5" stroke-linecap="round" stroke-linejoin="round"/>
<path d="M12.2632 13H14.8261L16.7483 23.8684H27" stroke="black" stroke-width="1.5" stroke-linecap="round" stroke-linejoin="round"/>
<path d="M16.6728 21.2894H26.6353C26.7092 21.2895 26.7808 21.2637 26.838 21.2164C26.8951 21.1692 26.9343 21.1034 26.9488 21.0303L28.0991 15.2277C28.1084 15.1809 28.1072 15.1326 28.0958 15.0863C28.0843 15.04 28.0628 14.9969 28.0328 14.96C28.0028 14.9231 27.9651 14.8934 27.9223 14.873C27.8796 14.8526 27.8328 14.842 27.7855 14.842H15.3948" stroke="black" stroke-width="1.5" stroke-linecap="round" stroke-linejoin="round"/>
</svg>
