<svg width="21" height="22" viewBox="0 0 21 22" fill="none" xmlns="http://www.w3.org/2000/svg">
<path d="M8.14233 15.2188L8.14233 11.6972" stroke="#222222" stroke-linecap="round"/>
<path d="M13.7118 15.2188L13.7118 11.6972" stroke="#222222" stroke-linecap="round"/>
<path d="M0.901855 5.82812H20.9522V5.82812C19.165 5.82812 18.2714 5.82812 17.6967 6.35878C17.6577 6.39477 17.6202 6.4323 17.5842 6.47128C17.0535 7.04594 17.0535 7.93956 17.0535 9.72681V17.0883C17.0535 18.9739 17.0535 19.9168 16.4678 20.5025C15.882 21.0883 14.9392 21.0883 13.0535 21.0883H8.80054C6.91492 21.0883 5.97211 21.0883 5.38633 20.5025C4.80054 19.9168 4.80054 18.9739 4.80054 17.0883V9.72681C4.80054 7.93956 4.80054 7.04594 4.26989 6.47128C4.23389 6.4323 4.19636 6.39477 4.15738 6.35878C3.58273 5.82812 2.6891 5.82812 0.901855 5.82812V5.82812Z" stroke="#222222" stroke-linecap="round"/>
<path d="M8.14224 2.30696C8.14224 2.30696 8.6992 1.13281 10.927 1.13281C13.1548 1.13281 13.7118 2.30667 13.7118 2.30667" stroke="#222222" stroke-linecap="round"/>
</svg>
