<svg width="18" height="16" viewBox="0 0 18 16" fill="none" xmlns="http://www.w3.org/2000/svg">
<path d="M6.32898 14.9999C6.68505 14.9999 6.97371 14.7113 6.97371 14.3552C6.97371 13.9991 6.68505 13.7104 6.32898 13.7104C5.9729 13.7104 5.68424 13.9991 5.68424 14.3552C5.68424 14.7113 5.9729 14.9999 6.32898 14.9999Z" stroke="black" stroke-width="1.5" stroke-linecap="round" stroke-linejoin="round"/>
<path d="M15.3553 14.9999C15.7114 14.9999 16 14.7113 16 14.3552C16 13.9991 15.7114 13.7104 15.3553 13.7104C14.9992 13.7104 14.7106 13.9991 14.7106 14.3552C14.7106 14.7113 14.9992 14.9999 15.3553 14.9999Z" stroke="black" stroke-width="1.5" stroke-linecap="round" stroke-linejoin="round"/>
<path d="M1.26318 1H3.82611L5.74831 11.8684H16" stroke="black" stroke-width="1.5" stroke-linecap="round" stroke-linejoin="round"/>
<path d="M5.67282 9.28941H15.6353C15.7092 9.28946 15.7808 9.26367 15.838 9.21643C15.8951 9.16918 15.9343 9.10341 15.9488 9.03031L17.0991 3.22767C17.1084 3.18088 17.1072 3.1326 17.0958 3.0863C17.0843 3.04001 17.0628 2.99686 17.0328 2.95996C17.0028 2.92307 16.9651 2.89335 16.9223 2.87296C16.8796 2.85257 16.8328 2.84201 16.7855 2.84204H4.39476" stroke="black" stroke-width="1.5" stroke-linecap="round" stroke-linejoin="round"/>
</svg>
